<svg width="1024" height="1024" viewBox="0 0 1024 1024" fill="none" xmlns="http://www.w3.org/2000/svg">
  <defs>
    <linearGradient id="bg" x1="196" y1="140" x2="840" y2="900" gradientUnits="userSpaceOnUse">
      <stop stop-color="#201D1B"/>
      <stop offset="0.52" stop-color="#35261E"/>
      <stop offset="1" stop-color="#563723"/>
    </linearGradient>
    <linearGradient id="paper" x1="512" y1="160" x2="512" y2="864" gradientUnits="userSpaceOnUse">
      <stop stop-color="#FBF4EB"/>
      <stop offset="1" stop-color="#EEDFCC"/>
    </linearGradient>
    <linearGradient id="fold" x1="720" y1="168" x2="640" y2="280" gradientUnits="userSpaceOnUse">
      <stop stop-color="#E7D7C3"/>
      <stop offset="1" stop-color="#D8C2AA"/>
    </linearGradient>
    <linearGradient id="mud" x1="320" y1="470" x2="752" y2="760" gradientUnits="userSpaceOnUse">
      <stop stop-color="#CD7440"/>
      <stop offset="0.48" stop-color="#A9592D"/>
      <stop offset="1" stop-color="#6F3D20"/>
    </linearGradient>
    <linearGradient id="mudShade" x1="340" y1="560" x2="720" y2="730" gradientUnits="userSpaceOnUse">
      <stop stop-color="#E49A62" stop-opacity="0.55"/>
      <stop offset="1" stop-color="#E49A62" stop-opacity="0"/>
    </linearGradient>
    <filter id="shadow" x="172" y="128" width="680" height="784" filterUnits="userSpaceOnUse" color-interpolation-filters="sRGB">
      <feFlood flood-opacity="0" result="BackgroundImageFix"/>
      <feColorMatrix in="SourceAlpha" type="matrix" values="0 0 0 0 0 0 0 0 0 0 0 0 0 0 0 0 0 0 127 0" result="hardAlpha"/>
      <feOffset dy="18"/>
      <feGaussianBlur stdDeviation="24"/>
      <feComposite in2="hardAlpha" operator="out"/>
      <feColorMatrix type="matrix" values="0 0 0 0 0.0607 0 0 0 0 0.0431 0 0 0 0 0.0313 0 0 0 0.28 0"/>
      <feBlend mode="normal" in2="BackgroundImageFix" result="effect1_dropShadow_0_1"/>
      <feBlend mode="normal" in="SourceGraphic" in2="effect1_dropShadow_0_1" result="shape"/>
    </filter>
  </defs>

  <rect x="64" y="64" width="896" height="896" rx="212" fill="url(#bg)"/>
  <rect x="104" y="104" width="816" height="816" rx="172" stroke="rgba(255,255,255,0.08)" stroke-width="2"/>

  <g filter="url(#shadow)">
    <rect x="252" y="160" width="520" height="704" rx="92" fill="url(#paper)"/>
    <path d="M644 160H772V288C736 281 706 264 683 239C661 215 648 190 644 160Z" fill="url(#fold)"/>
    <path d="M644 160V228C644 272 680 308 724 308H772" stroke="#D4B89A" stroke-width="18" stroke-linecap="round" stroke-linejoin="round"/>

    <rect x="332" y="300" width="238" height="28" rx="14" fill="#C66B3C"/>
    <rect x="332" y="354" width="302" height="24" rx="12" fill="#3C312C" fill-opacity="0.18"/>
    <rect x="332" y="404" width="262" height="24" rx="12" fill="#3C312C" fill-opacity="0.12"/>

    <path d="M314 666C329 566 373 512 427 512C484 512 518 620 546 620C574 620 603 512 662 512C718 512 748 594 770 650V740C729 771 680 783 629 772C589 763 550 758 512 758C473 758 433 763 392 772C356 780 332 773 314 760V666Z" fill="url(#mud)"/>
    <path d="M334 660C352 599 388 558 425 558C466 558 496 648 546 648C592 648 621 558 662 558C701 558 729 607 748 656" stroke="url(#mudShade)" stroke-width="34" stroke-linecap="round"/>
    <circle cx="392" cy="720" r="18" fill="#F5D2A9" fill-opacity="0.28"/>
    <circle cx="696" cy="698" r="14" fill="#F5D2A9" fill-opacity="0.22"/>
  </g>
</svg>
